<svg xmlns="http://www.w3.org/2000/svg" viewBox="0 0 64 64" role="img" aria-labelledby="title desc">
  <title id="title">NearNow favicon</title>
  <desc id="desc">A green NearNow map pin with a white N and live alert rings.</desc>
  <defs>
    <linearGradient id="pin" x1="8" y1="6" x2="56" y2="58" gradientUnits="userSpaceOnUse">
      <stop stop-color="#216b4e"/>
      <stop offset="0.55" stop-color="#1b9aaa"/>
      <stop offset="1" stop-color="#154c34"/>
    </linearGradient>
    <linearGradient id="ring" x1="6" y1="8" x2="58" y2="56" gradientUnits="userSpaceOnUse">
      <stop stop-color="#f3b23b"/>
      <stop offset="1" stop-color="#b94135"/>
    </linearGradient>
  </defs>
  <rect width="64" height="64" rx="16" fill="#fbfbf7"/>
  <circle cx="32" cy="32" r="27" fill="#dff7f8"/>
  <path d="M32 7c-10.3 0-18.7 8.2-18.7 18.3 0 13.7 18.7 31.7 18.7 31.7s18.7-18 18.7-31.7C50.7 15.2 42.3 7 32 7Z" fill="url(#pin)"/>
  <circle cx="32" cy="26" r="13.5" fill="#fbfbf7" opacity="0.96"/>
  <path d="M23.3 34.7V17.2h4.1l8.5 10.6V17.2h4.8v17.5h-4.1l-8.5-10.6v10.6h-4.8Z" fill="#216b4e"/>
  <path d="M9.5 17.5c3.4-4.8 8-8.5 13.2-10.7" fill="none" stroke="url(#ring)" stroke-width="3.2" stroke-linecap="round"/>
  <path d="M54.5 46.5c-3.4 4.8-8 8.5-13.2 10.7" fill="none" stroke="url(#ring)" stroke-width="3.2" stroke-linecap="round"/>
</svg>
